<svg version="1.1" id="Layer_1" xmlns="http://www.w3.org/2000/svg" xmlns:xlink="http://www.w3.org/1999/xlink" x="0px" y="0px"
	 width="100%" viewBox="0 0 1024 1024" enable-background="new 0 0 1024 1024" xml:space="preserve">
<path fill="#328678" opacity="1.000000" stroke="none" 
	d="
M1025.000000,468.000000 
	C1025.000000,497.687561 1025.000000,527.375122 1024.575195,557.457947 
	C1023.772278,558.698242 1023.165955,559.513184 1023.050110,560.392761 
	C1020.968323,576.205017 1019.675171,592.161255 1016.752441,607.813904 
	C1011.383179,636.567810 1003.333252,664.622253 993.158569,692.109558 
	C979.894348,727.943359 962.548645,761.643921 941.819519,793.646301 
	C926.025208,818.030029 908.280029,841.022400 888.205139,861.955383 
	C872.383850,878.452942 855.631958,894.196167 838.176880,908.953918 
	C816.069214,927.645325 792.083008,943.846802 766.815308,958.171936 
	C740.817749,972.910828 714.041931,985.976929 685.734131,995.401794 
	C664.125671,1002.596130 642.112244,1008.889526 619.888489,1013.825256 
	C600.382690,1018.157288 580.330872,1020.024536 560.535706,1023.080078 
	C559.613647,1023.222412 558.841797,1024.337769 558.000000,1025.000000 
	C527.979126,1025.000000 497.958221,1025.000000 467.543823,1024.577148 
	C466.140320,1023.771484 465.156311,1023.159119 464.116302,1023.041260 
	C454.466858,1021.948303 444.688477,1021.571716 435.176880,1019.773743 
	C416.505493,1016.244324 397.840485,1012.492126 379.428101,1007.824951 
	C350.561523,1000.507935 322.735565,990.070618 295.800201,977.350952 
	C268.515015,964.466003 242.143021,949.881042 217.938782,931.831787 
	C200.010147,918.462158 182.242844,904.715637 165.671753,889.734375 
	C151.064301,876.528259 137.659180,861.859192 124.748238,846.948486 
	C112.715034,833.051575 101.542839,818.334412 90.860939,803.358276 
	C70.821693,775.263062 54.020927,745.187439 41.269093,713.144409 
	C32.184135,690.315613 24.142319,666.975708 17.271318,643.387268 
	C9.599708,617.050354 5.036994,589.957764 2.911564,562.526550 
	C2.842903,561.640320 1.662278,560.840210 1.000004,560.000000 
	C1.000000,528.979126 1.000000,497.958221 1.422799,466.543823 
	C2.228564,465.139679 2.840875,464.154999 2.958756,463.114349 
	C4.052206,453.461609 4.336654,443.653778 6.242190,434.169464 
	C10.374151,413.603790 14.884300,393.091064 20.039331,372.759399 
	C27.822525,342.062195 39.998569,312.954529 53.965534,284.608429 
	C66.044846,260.093323 79.880348,236.540085 96.272713,214.682800 
	C108.911140,197.830933 122.173317,181.369415 136.185684,165.650299 
	C147.108109,153.397491 159.184967,142.069321 171.524078,131.211273 
	C185.733032,118.707809 200.227051,106.379425 215.605042,95.384560 
	C246.725189,73.134445 279.816803,54.039917 315.494415,40.031769 
	C336.393005,31.826323 357.712189,24.490816 379.258270,18.185930 
	C406.878265,10.103661 435.201416,5.066865 463.971924,2.899504 
	C464.691559,2.845291 465.325867,1.658543 466.000000,0.999997 
	C497.020905,1.000000 528.041809,1.000000 559.456177,1.422807 
	C566.748169,2.893801 573.665344,3.833515 580.541504,5.011915 
	C596.716187,7.783858 613.007202,10.062990 629.005066,13.641327 
	C658.388062,20.213596 687.219971,28.902924 714.443420,41.902611 
	C737.003296,52.675327 759.472595,63.808228 781.121277,76.276077 
	C809.735840,92.755684 835.708557,113.166595 859.894165,135.603210 
	C881.897034,156.014908 902.316101,178.006546 920.466370,202.006119 
	C937.865356,225.012314 953.482300,249.170700 966.864441,274.714233 
	C980.936523,301.574799 992.907715,329.374512 1001.638672,358.445312 
	C1006.212708,373.675171 1010.788147,388.999756 1013.782593,404.585205 
	C1017.683960,424.890411 1019.998901,445.499695 1023.093384,465.963470 
	C1023.207947,466.721100 1024.341431,467.324646 1025.000000,468.000000 
M242.961731,845.050049 
	C242.961731,845.050049 242.954361,845.161133 243.365128,845.814209 
	C245.734879,846.209473 248.104523,846.950073 250.474396,846.950806 
	C425.429077,847.004700 600.383789,847.000061 775.338501,846.999146 
	C776.838074,846.999146 778.392212,847.226746 779.819885,846.902893 
	C780.964966,846.643066 781.956543,845.706726 783.025757,844.124512 
	C783.019226,683.210876 783.012939,522.297241 783.002991,361.383606 
	C783.002869,359.385315 782.954224,357.386993 782.330811,354.803101 
	C780.058533,354.534607 777.786377,354.032013 775.514038,354.031219 
	C664.737244,353.992798 553.960449,353.997681 443.183624,353.997559 
	C383.713959,353.997467 324.244293,354.015869 264.774750,353.926270 
	C262.458099,353.922791 260.143005,352.883087 258.470886,351.990570 
	C300.414429,342.324951 342.357971,332.659332 385.066620,322.817383 
	C382.985352,321.490112 381.629517,320.578705 380.230133,319.739929 
	C345.272766,298.786804 310.313965,277.836060 275.346619,256.899597 
	C269.356689,253.313171 263.634491,247.779343 257.230194,246.801117 
	C250.635300,245.793777 243.352509,249.233017 236.380371,250.770493 
	C230.775635,252.006439 225.185349,253.307846 219.316147,254.642151 
	C222.149139,266.832489 224.840485,278.307190 227.479889,289.793823 
	C232.321152,310.863098 237.131775,331.939423 241.486969,353.692810 
	C241.324646,355.835419 241.020508,357.977997 241.020218,360.120636 
	C240.998093,519.350037 240.999939,678.579468 241.000732,837.808838 
	C241.000732,839.141235 240.776657,840.531860 241.087219,841.789062 
	C241.373764,842.949036 242.239731,843.965881 242.961731,845.050049 
M522.320190,207.214615 
	C514.888428,202.771637 507.540039,198.177856 499.967133,193.990097 
	C498.037354,192.922943 495.233246,192.411057 493.104553,192.881760 
	C455.540344,201.188095 418.017914,209.683258 380.492096,218.162689 
	C379.657349,218.351318 378.888763,218.833008 377.629608,219.376404 
	C379.926514,220.855255 381.731628,222.025238 383.544312,223.183426 
	C420.591400,246.854279 457.663269,270.486664 494.641449,294.264679 
	C497.564484,296.144287 500.111664,296.551544 503.430420,295.779694 
	C542.035950,286.801392 580.671753,277.953369 619.296082,269.055695 
	C620.478577,268.783295 621.622986,268.345764 623.440674,267.781860 
	C589.485840,247.452972 556.210083,227.530579 522.320190,207.214615 
M663.515137,194.970123 
	C682.309570,206.970551 701.096008,218.983627 719.903381,230.963745 
	C725.648621,234.623428 731.110840,240.178207 737.324036,241.244659 
	C743.538452,242.311325 750.534546,238.867783 757.179810,237.365448 
	C761.794312,236.322220 766.395203,235.218307 771.003601,234.141190 
	C763.388489,200.672089 755.948975,167.974838 748.459778,135.059525 
	C704.375366,145.015701 660.901917,154.833893 616.456360,164.871628 
	C632.643616,175.228470 647.772461,184.908096 663.515137,194.970123 
z"/>
<path fill="#000000" opacity="1.000000" stroke="none" 
	d="
M558.468689,1025.000000 
	C558.841797,1024.337769 559.613647,1023.222412 560.535706,1023.080078 
	C580.330872,1020.024536 600.382690,1018.157288 619.888489,1013.825256 
	C642.112244,1008.889526 664.125671,1002.596130 685.734131,995.401794 
	C714.041931,985.976929 740.817749,972.910828 766.815308,958.171936 
	C792.083008,943.846802 816.069214,927.645325 838.176880,908.953918 
	C855.631958,894.196167 872.383850,878.452942 888.205139,861.955383 
	C908.280029,841.022400 926.025208,818.030029 941.819519,793.646301 
	C962.548645,761.643921 979.894348,727.943359 993.158569,692.109558 
	C1003.333252,664.622253 1011.383179,636.567810 1016.752441,607.813904 
	C1019.675171,592.161255 1020.968323,576.205017 1023.050110,560.392761 
	C1023.165955,559.513184 1023.772278,558.698242 1024.575195,557.926636 
	C1025.000000,713.593750 1025.000000,869.187500 1025.000000,1025.000000 
	C869.645813,1025.000000 714.291565,1025.000000 558.468689,1025.000000 
z"/>
<path fill="#000000" opacity="1.000000" stroke="none" 
	d="
M1025.000000,467.531342 
	C1024.341431,467.324646 1023.207947,466.721100 1023.093384,465.963470 
	C1019.998901,445.499695 1017.683960,424.890411 1013.782593,404.585205 
	C1010.788147,388.999756 1006.212708,373.675171 1001.638672,358.445312 
	C992.907715,329.374512 980.936523,301.574799 966.864441,274.714233 
	C953.482300,249.170700 937.865356,225.012314 920.466370,202.006119 
	C902.316101,178.006546 881.897034,156.014908 859.894165,135.603210 
	C835.708557,113.166595 809.735840,92.755684 781.121277,76.276077 
	C759.472595,63.808228 737.003296,52.675327 714.443420,41.902611 
	C687.219971,28.902924 658.388062,20.213596 629.005066,13.641327 
	C613.007202,10.062990 596.716187,7.783858 580.541504,5.011915 
	C573.665344,3.833515 566.748169,2.893801 559.924805,1.422807 
	C714.927185,1.000000 869.854431,1.000000 1025.000000,1.000000 
	C1025.000000,156.354156 1025.000000,311.708435 1025.000000,467.531342 
z"/>
<path fill="#000000" opacity="1.000000" stroke="none" 
	d="
M1.000004,560.468628 
	C1.662278,560.840210 2.842903,561.640320 2.911564,562.526550 
	C5.036994,589.957764 9.599708,617.050354 17.271318,643.387268 
	C24.142319,666.975708 32.184135,690.315613 41.269093,713.144409 
	C54.020927,745.187439 70.821693,775.263062 90.860939,803.358276 
	C101.542839,818.334412 112.715034,833.051575 124.748238,846.948486 
	C137.659180,861.859192 151.064301,876.528259 165.671753,889.734375 
	C182.242844,904.715637 200.010147,918.462158 217.938782,931.831787 
	C242.143021,949.881042 268.515015,964.466003 295.800201,977.350952 
	C322.735565,990.070618 350.561523,1000.507935 379.428101,1007.824951 
	C397.840485,1012.492126 416.505493,1016.244324 435.176880,1019.773743 
	C444.688477,1021.571716 454.466858,1021.948303 464.116302,1023.041260 
	C465.156311,1023.159119 466.140320,1023.771484 467.075165,1024.577148 
	C311.739655,1025.000000 156.479324,1025.000000 1.000000,1025.000000 
	C1.000000,870.312500 1.000000,715.624939 1.000004,560.468628 
z"/>
<path fill="#000000" opacity="1.000000" stroke="none" 
	d="
M465.531342,0.999997 
	C465.325867,1.658543 464.691559,2.845291 463.971924,2.899504 
	C435.201416,5.066865 406.878265,10.103661 379.258270,18.185930 
	C357.712189,24.490816 336.393005,31.826323 315.494415,40.031769 
	C279.816803,54.039917 246.725189,73.134445 215.605042,95.384560 
	C200.227051,106.379425 185.733032,118.707809 171.524078,131.211273 
	C159.184967,142.069321 147.108109,153.397491 136.185684,165.650299 
	C122.173317,181.369415 108.911140,197.830933 96.272713,214.682800 
	C79.880348,236.540085 66.044846,260.093323 53.965534,284.608429 
	C39.998569,312.954529 27.822525,342.062195 20.039331,372.759399 
	C14.884300,393.091064 10.374151,413.603790 6.242190,434.169464 
	C4.336654,443.653778 4.052206,453.461609 2.958756,463.114349 
	C2.840875,464.154999 2.228564,465.139679 1.422799,466.075134 
	C1.000000,311.072906 1.000000,156.145828 1.000000,1.000000 
	C155.687485,1.000000 310.375092,1.000000 465.531342,0.999997 
z"/>
<path fill="#FDFEFE" opacity="1.000000" stroke="none" 
	d="
M241.955185,353.012787 
	C237.131775,331.939423 232.321152,310.863098 227.479889,289.793823 
	C224.840485,278.307190 222.149139,266.832489 219.316147,254.642151 
	C225.185349,253.307846 230.775635,252.006439 236.380371,250.770493 
	C243.352509,249.233017 250.635300,245.793777 257.230194,246.801117 
	C263.634491,247.779343 269.356689,253.313171 275.346619,256.899597 
	C310.313965,277.836060 345.272766,298.786804 380.230133,319.739929 
	C381.629517,320.578705 382.985352,321.490112 385.066620,322.817383 
	C342.357971,332.659332 300.414429,342.324951 257.728821,352.182587 
	C254.139420,353.041565 251.292114,353.708557 248.444809,354.375519 
	C248.477936,354.688049 248.511063,355.000580 248.544189,355.313110 
	C249.931168,355.313110 251.318130,355.313171 252.705109,355.313110 
	C427.781250,355.304901 602.857361,355.296387 777.933533,355.292664 
	C779.598450,355.292603 781.263306,355.355316 782.928223,355.388733 
	C782.954224,357.386993 783.002869,359.385315 783.002991,361.383606 
	C783.012939,522.297241 783.019226,683.210876 782.555908,844.668701 
	C602.874207,845.222473 423.662323,845.232117 244.450424,845.238281 
	C243.951736,845.238281 243.453049,845.187927 242.954361,845.161133 
	C242.954361,845.161133 242.961731,845.050049 242.868195,844.577698 
	C242.769058,682.697327 242.766754,521.289246 242.724503,359.881226 
	C242.723907,357.591675 242.222733,355.302277 241.955185,353.012787 
M726.882507,411.353882 
	C726.258423,411.340088 725.634338,411.326263 724.080078,411.180664 
	C584.051208,411.172729 444.022369,411.164459 303.993530,411.163330 
	C302.997681,411.163300 302.001862,411.260590 300.360229,411.101074 
	C299.838257,411.378723 299.316254,411.656372 298.546478,412.851715 
	C298.546478,538.248108 298.546478,663.644470 298.546478,789.129333 
	C441.704468,789.129333 584.343628,789.129333 727.229126,789.129333 
	C727.229126,787.454956 727.229126,786.141907 727.229126,784.828857 
	C727.229126,663.207642 727.229614,541.586487 727.221191,419.965271 
	C727.221069,418.636902 727.103638,417.308502 727.261658,415.259125 
	C727.204773,414.512848 727.147888,413.766602 727.231934,412.496552 
	C727.168518,412.327209 727.105164,412.157898 726.882507,411.353882 
z"/>
<path fill="#FEFEFE" opacity="1.000000" stroke="none" 
	d="
M522.627197,207.411407 
	C556.210083,227.530579 589.485840,247.452972 623.440674,267.781860 
	C621.622986,268.345764 620.478577,268.783295 619.296082,269.055695 
	C580.671753,277.953369 542.035950,286.801392 503.430420,295.779694 
	C500.111664,296.551544 497.564484,296.144287 494.641449,294.264679 
	C457.663269,270.486664 420.591400,246.854279 383.544312,223.183426 
	C381.731628,222.025238 379.926514,220.855255 377.629608,219.376404 
	C378.888763,218.833008 379.657349,218.351318 380.492096,218.162689 
	C418.017914,209.683258 455.540344,201.188095 493.104553,192.881760 
	C495.233246,192.411057 498.037354,192.922943 499.967133,193.990097 
	C507.540039,198.177856 514.888428,202.771637 522.627197,207.411407 
z"/>
<path fill="#FEFEFE" opacity="1.000000" stroke="none" 
	d="
M663.208191,194.778931 
	C647.772461,184.908096 632.643616,175.228470 616.456360,164.871628 
	C660.901917,154.833893 704.375366,145.015701 748.459778,135.059525 
	C755.948975,167.974838 763.388489,200.672089 771.003601,234.141190 
	C766.395203,235.218307 761.794312,236.322220 757.179810,237.365448 
	C750.534546,238.867783 743.538452,242.311325 737.324036,241.244659 
	C731.110840,240.178207 725.648621,234.623428 719.903381,230.963745 
	C701.096008,218.983627 682.309570,206.970551 663.208191,194.778931 
z"/>
<path fill="#167767" opacity="1.000000" stroke="none" 
	d="
M243.159744,845.487671 
	C243.453049,845.187927 243.951736,845.238281 244.450424,845.238281 
	C423.662323,845.232117 602.874207,845.222473 782.551147,845.141724 
	C781.956543,845.706726 780.964966,846.643066 779.819885,846.902893 
	C778.392212,847.226746 776.838074,846.999146 775.338501,846.999146 
	C600.383789,847.000061 425.429077,847.004700 250.474396,846.950806 
	C248.104523,846.950073 245.734879,846.209473 243.159744,845.487671 
z"/>
<path fill="#1A7869" opacity="1.000000" stroke="none" 
	d="
M241.721069,353.352783 
	C242.222733,355.302277 242.723907,357.591675 242.724503,359.881226 
	C242.766754,521.289246 242.769058,682.697327 242.812592,844.575562 
	C242.239731,843.965881 241.373764,842.949036 241.087219,841.789062 
	C240.776657,840.531860 241.000732,839.141235 241.000732,837.808838 
	C240.999939,678.579468 240.998093,519.350037 241.020218,360.120636 
	C241.020508,357.977997 241.324646,355.835419 241.721069,353.352783 
z"/>
<path fill="#117262" opacity="1.000000" stroke="none" 
	d="
M782.629517,355.095917 
	C781.263306,355.355316 779.598450,355.292603 777.933533,355.292664 
	C602.857361,355.296387 427.781250,355.304901 252.705109,355.313110 
	C251.318130,355.313171 249.931168,355.313110 248.544189,355.313110 
	C248.511063,355.000580 248.477936,354.688049 248.444809,354.375519 
	C251.292114,353.708557 254.139420,353.041565 257.406952,352.350403 
	C260.143005,352.883087 262.458099,353.922791 264.774750,353.926270 
	C324.244293,354.015869 383.713959,353.997467 443.183624,353.997559 
	C553.960449,353.997681 664.737244,353.992798 775.514038,354.031219 
	C777.786377,354.032013 780.058533,354.534607 782.629517,355.095917 
z"/>
<path fill="#328678" opacity="1.000000" stroke="none" 
	d="
M727.091003,413.020325 
	C727.147888,413.766602 727.204773,414.512848 726.909180,415.957916 
	C726.372803,418.961792 726.028381,421.266846 726.027893,423.571960 
	C726.001770,542.383179 726.005066,661.194397 726.004456,780.005615 
	C726.004395,787.992188 726.001587,787.996704 718.222900,787.996887 
	C652.235168,787.998108 586.247437,787.997559 520.259705,787.997498 
	C448.939667,787.997437 377.619568,787.978455 306.299622,788.046936 
	C302.277100,788.050781 299.896301,787.718994 299.902161,782.523438 
	C300.039032,661.212891 300.027832,539.902039 299.928223,418.591339 
	C299.924591,414.180725 301.325226,412.897308 305.670166,412.900604 
	C446.143738,413.007721 586.617371,413.005890 727.091003,413.020325 
M449.268921,513.347290 
	C448.846222,514.869507 448.056122,516.391174 448.054108,517.913940 
	C447.989594,567.034729 447.984253,616.155640 448.077087,665.276306 
	C448.080109,666.865601 449.203156,668.452881 450.728302,670.332153 
	C459.481903,670.361267 468.236115,670.464844 476.988983,670.398193 
	C485.557495,670.333008 494.124725,670.094360 503.265442,669.328308 
	C503.510223,667.713013 503.967621,666.097900 503.968903,664.482422 
	C504.006836,615.854492 504.015839,567.226501 503.937378,518.598694 
	C503.934418,516.753845 503.016785,514.910522 501.651062,512.980286 
	C484.421204,512.984375 467.191376,512.988464 449.268921,513.347290 
M646.493958,670.152649 
	C646.617188,669.014160 646.847717,667.875793 646.848145,666.737244 
	C646.865906,616.802917 646.865906,566.868652 646.849121,516.934326 
	C646.848694,515.669189 646.636536,514.404175 646.535156,513.272949 
	C628.903992,513.272949 611.679138,513.272949 594.124817,513.272949 
	C594.124817,526.580383 594.137146,539.535950 594.122620,552.491577 
	C594.078674,591.771484 594.024353,631.051453 594.575439,670.968140 
	C595.817017,671.310059 597.057129,671.943298 598.300354,671.949341 
	C612.796143,672.019714 627.292603,672.029053 641.788269,671.943054 
	C643.176697,671.934753 644.560669,671.177368 646.493958,670.152649 
z"/>
<path fill="#167565" opacity="1.000000" stroke="none" 
	d="
M727.161499,412.758423 
	C586.617371,413.005890 446.143738,413.007721 305.670166,412.900604 
	C301.325226,412.897308 299.924591,414.180725 299.928223,418.591339 
	C300.027832,539.902039 300.039032,661.212891 299.902161,782.523438 
	C299.896301,787.718994 302.277100,788.050781 306.299622,788.046936 
	C377.619568,787.978455 448.939667,787.997437 520.259705,787.997498 
	C586.247437,787.997559 652.235168,787.998108 718.222900,787.996887 
	C726.001587,787.996704 726.004395,787.992188 726.004456,780.005615 
	C726.005066,661.194397 726.001770,542.383179 726.027893,423.571960 
	C726.028381,421.266846 726.372803,418.961792 726.798889,416.318420 
	C727.103638,417.308502 727.221069,418.636902 727.221191,419.965271 
	C727.229614,541.586487 727.229126,663.207642 727.229126,784.828857 
	C727.229126,786.141907 727.229126,787.454956 727.229126,789.129333 
	C584.343628,789.129333 441.704468,789.129333 298.546478,789.129333 
	C298.546478,663.644470 298.546478,538.248108 298.965088,412.382477 
	C299.924500,411.712982 300.465240,411.512726 301.006012,411.312439 
	C302.001862,411.260590 302.997681,411.163300 303.993530,411.163330 
	C444.022369,411.164459 584.051208,411.172729 724.760193,411.416138 
	C725.974121,411.763947 726.507996,411.876251 727.041809,411.988586 
	C727.105164,412.157898 727.168518,412.327209 727.161499,412.758423 
z"/>
<path fill="#35887A" opacity="1.000000" stroke="none" 
	d="
M726.962158,411.671234 
	C726.507996,411.876251 725.974121,411.763947 725.225281,411.482056 
	C725.634338,411.326263 726.258423,411.340088 726.962158,411.671234 
z"/>
<path fill="#35887A" opacity="1.000000" stroke="none" 
	d="
M300.683105,411.206757 
	C300.465240,411.512726 299.924500,411.712982 299.088989,411.923645 
	C299.316254,411.656372 299.838257,411.378723 300.683105,411.206757 
z"/>
<path fill="#FEFEFE" opacity="1.000000" stroke="none" 
	d="
M593.974121,670.331421 
	C594.024353,631.051453 594.078674,591.771484 594.122620,552.491577 
	C594.137146,539.535950 594.124817,526.580383 594.124817,513.272949 
	C611.679138,513.272949 628.903992,513.272949 646.535156,513.272949 
	C646.636536,514.404175 646.848694,515.669189 646.849121,516.934326 
	C646.865906,566.868652 646.865906,616.802917 646.848145,666.737244 
	C646.847717,667.875793 646.617188,669.014160 645.760010,670.387085 
	C628.008667,670.524841 610.991394,670.428162 593.974121,670.331421 
z"/>
<path fill="#FFFFFF" opacity="1.000000" stroke="none" 
	d="
M502.692505,669.931824 
	C494.124725,670.094360 485.557495,670.333008 476.988983,670.398193 
	C468.236115,670.464844 459.481903,670.361267 450.280212,669.715637 
	C449.837372,663.612793 449.843201,658.126526 449.847687,652.640198 
	C449.885803,606.091003 449.923615,559.541748 449.961517,512.992554 
	C467.191376,512.988464 484.421204,512.984375 502.101318,513.488281 
	C502.549225,535.654785 502.527313,557.313354 502.549194,578.971863 
	C502.579865,609.291870 502.643158,639.611816 502.692505,669.931824 
z"/>
<path fill="#1D7B6B" opacity="1.000000" stroke="none" 
	d="
M449.615234,513.169922 
	C449.923615,559.541748 449.885803,606.091003 449.847687,652.640198 
	C449.843201,658.126526 449.837372,663.612793 449.818115,669.570068 
	C449.203156,668.452881 448.080109,666.865601 448.077087,665.276306 
	C447.984253,616.155640 447.989594,567.034729 448.054108,517.913940 
	C448.056122,516.391174 448.846222,514.869507 449.615234,513.169922 
z"/>
<path fill="#157464" opacity="1.000000" stroke="none" 
	d="
M502.978943,669.630066 
	C502.643158,639.611816 502.579865,609.291870 502.549194,578.971863 
	C502.527313,557.313354 502.549225,535.654785 502.538483,513.531372 
	C503.016785,514.910522 503.934418,516.753845 503.937378,518.598694 
	C504.015839,567.226501 504.006836,615.854492 503.968903,664.482422 
	C503.967621,666.097900 503.510223,667.713013 502.978943,669.630066 
z"/>
<path fill="#127464" opacity="1.000000" stroke="none" 
	d="
M594.274780,670.649780 
	C610.991394,670.428162 628.008667,670.524841 645.486328,670.694641 
	C644.560669,671.177368 643.176697,671.934753 641.788269,671.943054 
	C627.292603,672.029053 612.796143,672.019714 598.300354,671.949341 
	C597.057129,671.943298 595.817017,671.310059 594.274780,670.649780 
z"/>
</svg>